<svg width="20" height="21" viewBox="0 0 20 21" fill="none" xmlns="http://www.w3.org/2000/svg">
<g clip-path="url(#clip0_1_1783)">
<path d="M7.5 3H4.16667C3.72464 3 3.30072 3.17559 2.98816 3.48816C2.67559 3.80072 2.5 4.22464 2.5 4.66667V8C2.5 8.44203 2.67559 8.86595 2.98816 9.17851C3.30072 9.49107 3.72464 9.66667 4.16667 9.66667H7.5C7.94203 9.66667 8.36595 9.49107 8.67851 9.17851C8.99107 8.86595 9.16667 8.44203 9.16667 8V4.66667C9.16667 4.22464 8.99107 3.80072 8.67851 3.48816C8.36595 3.17559 7.94203 3 7.5 3ZM4.16667 8V4.66667H7.5V8H4.16667Z" fill="#94A3B8"/>
<path d="M15.8335 3H12.5002C12.0581 3 11.6342 3.17559 11.3217 3.48816C11.0091 3.80072 10.8335 4.22464 10.8335 4.66667V8C10.8335 8.44203 11.0091 8.86595 11.3217 9.17851C11.6342 9.49107 12.0581 9.66667 12.5002 9.66667H15.8335C16.2755 9.66667 16.6994 9.49107 17.012 9.17851C17.3246 8.86595 17.5002 8.44203 17.5002 8V4.66667C17.5002 4.22464 17.3246 3.80072 17.012 3.48816C16.6994 3.17559 16.2755 3 15.8335 3ZM12.5002 8V4.66667H15.8335V8H12.5002Z" fill="#94A3B8"/>
<path d="M7.5 11.3335H4.16667C3.72464 11.3335 3.30072 11.5091 2.98816 11.8217C2.67559 12.1342 2.5 12.5581 2.5 13.0002V16.3335C2.5 16.7755 2.67559 17.1994 2.98816 17.512C3.30072 17.8246 3.72464 18.0002 4.16667 18.0002H7.5C7.94203 18.0002 8.36595 17.8246 8.67851 17.512C8.99107 17.1994 9.16667 16.7755 9.16667 16.3335V13.0002C9.16667 12.5581 8.99107 12.1342 8.67851 11.8217C8.36595 11.5091 7.94203 11.3335 7.5 11.3335ZM4.16667 16.3335V13.0002H7.5V16.3335H4.16667Z" fill="#94A3B8"/>
<path d="M15.8335 11.3335H12.5002C12.0581 11.3335 11.6342 11.5091 11.3217 11.8217C11.0091 12.1342 10.8335 12.5581 10.8335 13.0002V16.3335C10.8335 16.7755 11.0091 17.1994 11.3217 17.512C11.6342 17.8246 12.0581 18.0002 12.5002 18.0002H15.8335C16.2755 18.0002 16.6994 17.8246 17.012 17.512C17.3246 17.1994 17.5002 16.7755 17.5002 16.3335V13.0002C17.5002 12.5581 17.3246 12.1342 17.012 11.8217C16.6994 11.5091 16.2755 11.3335 15.8335 11.3335ZM12.5002 16.3335V13.0002H15.8335V16.3335H12.5002Z" fill="#94A3B8"/>
</g>
<defs>
<clipPath id="clip0_1_1783">
<rect width="20" height="20" fill="white" transform="translate(0 0.5)"/>
</clipPath>
</defs>
</svg>
