<svg width="20" height="21" viewBox="0 0 20 21" fill="none" xmlns="http://www.w3.org/2000/svg">
<g clip-path="url(#clip0_1_1801)">
<path d="M5.8335 5.49992C6.05451 5.49992 6.26647 5.41212 6.42275 5.25584C6.57903 5.09956 6.66683 4.8876 6.66683 4.66659C6.66683 4.44557 6.57903 4.23361 6.42275 4.07733C6.26647 3.92105 6.05451 3.83325 5.8335 3.83325H4.16683C3.94582 3.83325 3.73385 3.92105 3.57757 4.07733C3.42129 4.23361 3.3335 4.44557 3.3335 4.66659V16.3333C3.3335 16.5543 3.42129 16.7662 3.57757 16.9225C3.73385 17.0788 3.94582 17.1666 4.16683 17.1666H5.8335C6.05451 17.1666 6.26647 17.0788 6.42275 16.9225C6.57903 16.7662 6.66683 16.5543 6.66683 16.3333C6.66683 16.1122 6.57903 15.9003 6.42275 15.744C6.26647 15.5877 6.05451 15.4999 5.8335 15.4999H5.00016V5.49992H5.8335Z" fill="#94A3B8"/>
<path d="M17.35 10.0165L15 6.68321C14.8726 6.50355 14.6792 6.38166 14.4621 6.34419C14.245 6.30671 14.022 6.35669 13.8417 6.48321C13.7515 6.54637 13.6748 6.62675 13.6159 6.71972C13.557 6.81268 13.5171 6.9164 13.4985 7.02486C13.4799 7.13333 13.483 7.24441 13.5076 7.35169C13.5321 7.45896 13.5777 7.56031 13.6417 7.64988L15.075 9.66654H8.33333C8.11232 9.66654 7.90036 9.75434 7.74408 9.91062C7.5878 10.0669 7.5 10.2789 7.5 10.4999C7.5 10.7209 7.5878 10.9329 7.74408 11.0891C7.90036 11.2454 8.11232 11.3332 8.33333 11.3332H15L13.5 13.3332C13.4343 13.4208 13.3866 13.5204 13.3594 13.6264C13.3322 13.7324 13.3262 13.8427 13.3417 13.9511C13.3572 14.0594 13.3938 14.1636 13.4496 14.2578C13.5054 14.352 13.5791 14.4342 13.6667 14.4999C13.8109 14.6081 13.9864 14.6665 14.1667 14.6665C14.296 14.6665 14.4236 14.6364 14.5393 14.5786C14.6551 14.5207 14.7557 14.4367 14.8333 14.3332L17.3333 10.9999C17.4401 10.8589 17.4992 10.6877 17.5022 10.5109C17.5052 10.3342 17.4519 10.161 17.35 10.0165Z" fill="#94A3B8"/>
</g>
<defs>
<clipPath id="clip0_1_1801">
<rect width="20" height="20" fill="white" transform="translate(0 0.5)"/>
</clipPath>
</defs>
</svg>
