<svg width="20" height="21" viewBox="0 0 20 21" fill="none" xmlns="http://www.w3.org/2000/svg">
<g clip-path="url(#clip0_1_1798)">
<path d="M15.8332 3H4.1665C3.50346 3 2.86758 3.26339 2.39874 3.73223C1.9299 4.20107 1.6665 4.83696 1.6665 5.5V12.1667C1.6665 12.8297 1.9299 13.4656 2.39874 13.9344C2.86758 14.4033 3.50346 14.6667 4.1665 14.6667H9.1665V16.3333H5.83317C5.61216 16.3333 5.4002 16.4211 5.24392 16.5774C5.08764 16.7337 4.99984 16.9457 4.99984 17.1667C4.99984 17.3877 5.08764 17.5996 5.24392 17.7559C5.4002 17.9122 5.61216 18 5.83317 18H14.1665C14.3875 18 14.5995 17.9122 14.7558 17.7559C14.912 17.5996 14.9998 17.3877 14.9998 17.1667C14.9998 16.9457 14.912 16.7337 14.7558 16.5774C14.5995 16.4211 14.3875 16.3333 14.1665 16.3333H10.8332V14.6667H15.8332C16.4962 14.6667 17.1321 14.4033 17.6009 13.9344C18.0698 13.4656 18.3332 12.8297 18.3332 12.1667V5.5C18.3332 4.83696 18.0698 4.20107 17.6009 3.73223C17.1321 3.26339 16.4962 3 15.8332 3ZM16.6665 12.1667C16.6665 12.3877 16.5787 12.5996 16.4224 12.7559C16.2661 12.9122 16.0542 13 15.8332 13H4.1665C3.94549 13 3.73353 12.9122 3.57725 12.7559C3.42097 12.5996 3.33317 12.3877 3.33317 12.1667V5.5C3.33317 5.27899 3.42097 5.06702 3.57725 4.91074C3.73353 4.75446 3.94549 4.66667 4.1665 4.66667H15.8332C16.0542 4.66667 16.2661 4.75446 16.4224 4.91074C16.5787 5.06702 16.6665 5.27899 16.6665 5.5V12.1667Z" fill="#94A3B8"/>
</g>
<defs>
<clipPath id="clip0_1_1798">
<rect width="20" height="20" fill="white" transform="translate(0 0.5)"/>
</clipPath>
</defs>
</svg>
