<svg width="20" height="21" viewBox="0 0 20 21" fill="none" xmlns="http://www.w3.org/2000/svg">
<g clip-path="url(#clip0_1_1792)">
<path d="M7.49984 9.66667C8.15911 9.66667 8.80357 9.47117 9.35174 9.1049C9.8999 8.73863 10.3271 8.21803 10.5794 7.60895C10.8317 6.99986 10.8977 6.32964 10.7691 5.68303C10.6405 5.03643 10.323 4.44249 9.85686 3.97631C9.39069 3.51014 8.79674 3.19267 8.15014 3.06405C7.50354 2.93543 6.83331 3.00144 6.22423 3.25374C5.61514 3.50603 5.09454 3.93327 4.72827 4.48143C4.362 5.0296 4.1665 5.67406 4.1665 6.33334C4.1665 7.21739 4.51769 8.06524 5.14281 8.69036C5.76794 9.31548 6.61578 9.66667 7.49984 9.66667ZM7.49984 4.66667C7.82947 4.66667 8.15171 4.76442 8.42579 4.94755C8.69987 5.13069 8.91349 5.39099 9.03964 5.69553C9.16578 6.00007 9.19879 6.33518 9.13448 6.65849C9.07017 6.98179 8.91144 7.27876 8.67835 7.51185C8.44526 7.74493 8.14829 7.90367 7.82499 7.96798C7.50169 8.03229 7.16658 7.99928 6.86203 7.87313C6.55749 7.74699 6.29719 7.53337 6.11405 7.25929C5.93092 6.9852 5.83317 6.66297 5.83317 6.33334C5.83317 5.89131 6.00877 5.46738 6.32133 5.15482C6.63389 4.84226 7.05781 4.66667 7.49984 4.66667Z" fill="#94A3B8"/>
<path d="M14.1665 11.3335C14.661 11.3335 15.1443 11.1869 15.5554 10.9122C15.9666 10.6375 16.287 10.247 16.4762 9.79021C16.6654 9.33339 16.7149 8.83072 16.6185 8.34577C16.522 7.86082 16.2839 7.41536 15.9343 7.06573C15.5846 6.7161 15.1392 6.478 14.6542 6.38153C14.1693 6.28507 13.6666 6.33458 13.2098 6.5238C12.753 6.71302 12.3625 7.03345 12.0878 7.44457C11.8131 7.85569 11.6665 8.33904 11.6665 8.8335C11.6665 9.49654 11.9299 10.1324 12.3987 10.6013C12.8676 11.0701 13.5035 11.3335 14.1665 11.3335ZM14.1665 8.00016C14.3313 8.00016 14.4924 8.04904 14.6295 8.14061C14.7665 8.23217 14.8733 8.36232 14.9364 8.51459C14.9995 8.66687 15.016 8.83442 14.9838 8.99607C14.9517 9.15772 14.8723 9.30621 14.7558 9.42275C14.6392 9.5393 14.4907 9.61866 14.3291 9.65082C14.1674 9.68297 13.9999 9.66647 13.8476 9.6034C13.6953 9.54032 13.5652 9.43351 13.4736 9.29647C13.382 9.15943 13.3332 8.99831 13.3332 8.8335C13.3332 8.61248 13.421 8.40052 13.5772 8.24424C13.7335 8.08796 13.9455 8.00016 14.1665 8.00016Z" fill="#94A3B8"/>
<path d="M14.1665 12.1668C13.243 12.1678 12.3461 12.4756 11.6165 13.0418C10.8003 12.2287 9.76155 11.6756 8.63136 11.4521C7.50116 11.2286 6.3301 11.3448 5.26586 11.786C4.20162 12.2272 3.29185 12.9737 2.65129 13.9313C2.01073 14.8889 1.66806 16.0147 1.6665 17.1668C1.6665 17.3878 1.7543 17.5997 1.91058 17.756C2.06686 17.9123 2.27882 18.0001 2.49984 18.0001C2.72085 18.0001 2.93281 17.9123 3.08909 17.756C3.24537 17.5997 3.33317 17.3878 3.33317 17.1668C3.33317 16.0617 3.77216 15.0019 4.55356 14.2205C5.33496 13.4391 6.39477 13.0001 7.49984 13.0001C8.60491 13.0001 9.66471 13.4391 10.4461 14.2205C11.2275 15.0019 11.6665 16.0617 11.6665 17.1668C11.6665 17.3878 11.7543 17.5997 11.9106 17.756C12.0669 17.9123 12.2788 18.0001 12.4998 18.0001C12.7209 18.0001 12.9328 17.9123 13.0891 17.756C13.2454 17.5997 13.3332 17.3878 13.3332 17.1668C13.3352 16.1904 13.0885 15.2297 12.6165 14.3751C12.9848 14.0841 13.4275 13.9026 13.8941 13.8515C14.3607 13.8003 14.8322 13.8816 15.2548 14.0859C15.6774 14.2902 16.0339 14.6094 16.2835 15.0069C16.5332 15.4043 16.6659 15.864 16.6665 16.3334C16.6665 16.5544 16.7543 16.7664 16.9106 16.9227C17.0669 17.079 17.2788 17.1668 17.4998 17.1668C17.7209 17.1668 17.9328 17.079 18.0891 16.9227C18.2454 16.7664 18.3332 16.5544 18.3332 16.3334C18.3332 15.2284 17.8942 14.1685 17.1128 13.3871C16.3314 12.6057 15.2716 12.1668 14.1665 12.1668Z" fill="#94A3B8"/>
</g>
<defs>
<clipPath id="clip0_1_1792">
<rect width="20" height="20" fill="white" transform="translate(0 0.5)"/>
</clipPath>
</defs>
</svg>
