<svg width="20" height="21" viewBox="0 0 20 21" fill="none" xmlns="http://www.w3.org/2000/svg">
<g clip-path="url(#clip0_1_1786)">
<path d="M17.5002 5.50016H16.6668V4.66683C16.6668 4.44582 16.579 4.23385 16.4228 4.07757C16.2665 3.92129 16.0545 3.8335 15.8335 3.8335C15.6125 3.8335 15.4005 3.92129 15.2442 4.07757C15.088 4.23385 15.0002 4.44582 15.0002 4.66683V5.50016H14.1668C13.9458 5.50016 13.7339 5.58796 13.5776 5.74424C13.4213 5.90052 13.3335 6.11248 13.3335 6.3335C13.3335 6.55451 13.4213 6.76647 13.5776 6.92275C13.7339 7.07903 13.9458 7.16683 14.1668 7.16683H15.0002V8.00016C15.0002 8.22118 15.088 8.43314 15.2442 8.58942C15.4005 8.7457 15.6125 8.8335 15.8335 8.8335C16.0545 8.8335 16.2665 8.7457 16.4228 8.58942C16.579 8.43314 16.6668 8.22118 16.6668 8.00016V7.16683H17.5002C17.7212 7.16683 17.9331 7.07903 18.0894 6.92275C18.2457 6.76647 18.3335 6.55451 18.3335 6.3335C18.3335 6.11248 18.2457 5.90052 18.0894 5.74424C17.9331 5.58796 17.7212 5.50016 17.5002 5.50016Z" fill="#94A3B8"/>
<path d="M8.33333 9.66667C8.9926 9.66667 9.63707 9.47117 10.1852 9.1049C10.7334 8.73863 11.1606 8.21803 11.4129 7.60895C11.6652 6.99986 11.7312 6.32964 11.6026 5.68303C11.474 5.03643 11.1565 4.44249 10.6904 3.97631C10.2242 3.51014 9.63024 3.19267 8.98363 3.06405C8.33703 2.93543 7.66681 3.00144 7.05772 3.25374C6.44863 3.50603 5.92804 3.93327 5.56177 4.48143C5.1955 5.0296 5 5.67406 5 6.33334C5 7.21739 5.35119 8.06524 5.97631 8.69036C6.60143 9.31548 7.44928 9.66667 8.33333 9.66667ZM8.33333 4.66667C8.66297 4.66667 8.9852 4.76442 9.25928 4.94755C9.53337 5.13069 9.74699 5.39099 9.87313 5.69553C9.99928 6.00007 10.0323 6.33518 9.96798 6.65849C9.90367 6.98179 9.74493 7.27876 9.51184 7.51185C9.27876 7.74493 8.98179 7.90367 8.65848 7.96798C8.33518 8.03229 8.00007 7.99928 7.69553 7.87313C7.39098 7.74699 7.13069 7.53337 6.94755 7.25929C6.76442 6.9852 6.66667 6.66297 6.66667 6.33334C6.66667 5.89131 6.84226 5.46738 7.15482 5.15482C7.46738 4.84226 7.89131 4.66667 8.33333 4.66667Z" fill="#94A3B8"/>
<path d="M8.33333 11.3335C6.78624 11.3335 5.30251 11.9481 4.20854 13.042C3.11458 14.136 2.5 15.6197 2.5 17.1668C2.5 17.3878 2.5878 17.5998 2.74408 17.7561C2.90036 17.9124 3.11232 18.0002 3.33333 18.0002C3.55435 18.0002 3.76631 17.9124 3.92259 17.7561C4.07887 17.5998 4.16667 17.3878 4.16667 17.1668C4.16667 16.0618 4.60565 15.002 5.38706 14.2206C6.16846 13.4391 7.22826 13.0002 8.33333 13.0002C9.4384 13.0002 10.4982 13.4391 11.2796 14.2206C12.061 15.002 12.5 16.0618 12.5 17.1668C12.5 17.3878 12.5878 17.5998 12.7441 17.7561C12.9004 17.9124 13.1123 18.0002 13.3333 18.0002C13.5543 18.0002 13.7663 17.9124 13.9226 17.7561C14.0789 17.5998 14.1667 17.3878 14.1667 17.1668C14.1667 15.6197 13.5521 14.136 12.4581 13.042C11.3642 11.9481 9.88043 11.3335 8.33333 11.3335Z" fill="#94A3B8"/>
</g>
<defs>
<clipPath id="clip0_1_1786">
<rect width="20" height="20" fill="white" transform="translate(0 0.5)"/>
</clipPath>
</defs>
</svg>
