<svg width="20" height="21" viewBox="0 0 20 21" fill="none" xmlns="http://www.w3.org/2000/svg">
<g clip-path="url(#clip0_1_1795)">
<path d="M17.5 6.33333C17.5079 6.27527 17.5079 6.2164 17.5 6.15833C17.4928 6.10941 17.4787 6.06173 17.4583 6.01667C17.4363 5.97594 17.4112 5.93694 17.3833 5.9C17.3516 5.84729 17.3123 5.79956 17.2667 5.75833L17.1667 5.7C17.1186 5.66413 17.0651 5.63601 17.0083 5.61667H16.8417C16.7909 5.5675 16.7316 5.52796 16.6667 5.5H12.5C12.279 5.5 12.067 5.5878 11.9107 5.74408C11.7545 5.90036 11.6667 6.11232 11.6667 6.33333C11.6667 6.55435 11.7545 6.76631 11.9107 6.92259C12.067 7.07887 12.279 7.16667 12.5 7.16667H14.8583L11.525 11.0917L7.925 8.95C7.75449 8.84858 7.55338 8.81133 7.35786 8.84493C7.16233 8.87854 6.9852 8.9808 6.85834 9.13333L2.69167 14.1333C2.6215 14.2175 2.56863 14.3148 2.5361 14.4194C2.50356 14.5241 2.49199 14.6342 2.50205 14.7433C2.51212 14.8525 2.54361 14.9585 2.59474 15.0555C2.64587 15.1525 2.71562 15.2384 2.8 15.3083C2.94993 15.4326 3.13863 15.5004 3.33334 15.5C3.45576 15.5002 3.57673 15.4734 3.68763 15.4216C3.79853 15.3697 3.89665 15.2941 3.975 15.2L7.68334 10.75L11.2417 12.8833C11.4104 12.9834 11.6091 13.0208 11.8027 12.9888C11.9963 12.9567 12.1724 12.8574 12.3 12.7083L15.8333 8.58333V10.5C15.8333 10.721 15.9211 10.933 16.0774 11.0893C16.2337 11.2455 16.4457 11.3333 16.6667 11.3333C16.8877 11.3333 17.0996 11.2455 17.2559 11.0893C17.4122 10.933 17.5 10.721 17.5 10.5V6.33333Z" fill="#94A3B8"/>
</g>
<defs>
<clipPath id="clip0_1_1795">
<rect width="20" height="20" fill="white" transform="translate(0 0.5)"/>
</clipPath>
</defs>
</svg>
